<svg width="12" height="12" viewBox="0 0 12 12" fill="none" xmlns="http://www.w3.org/2000/svg">
<path d="M5.968 7.53653C6.96211 7.53653 7.768 6.76121 7.768 5.8048C7.768 4.84839 6.96211 4.07306 5.968 4.07306C4.97389 4.07306 4.168 4.84839 4.168 5.8048C4.168 6.76121 4.97389 7.53653 5.968 7.53653Z" stroke="#FB2387" stroke-opacity="0.5" stroke-width="2" stroke-linecap="round" stroke-linejoin="round"/>
<path d="M9.16803 11C8.86518 10.4347 8.40636 9.96046 7.8419 9.62941C7.27743 9.29835 6.62912 9.12322 5.96803 9.12322C5.30695 9.12322 4.65864 9.29835 4.09417 9.62941C3.52971 9.96046 3.07089 10.4347 2.76804 11" stroke="#FB2387" stroke-opacity="0.5" stroke-width="2" stroke-linecap="round" stroke-linejoin="round"/>
<path d="M9.968 8.7372C10.5357 8.02481 10.8849 7.1738 10.9761 6.28042C11.0672 5.38704 10.8968 4.48694 10.4839 3.68193C10.0711 2.87691 9.43231 2.19909 8.63991 1.72514C7.8475 1.25118 6.93306 1 6 1C5.06694 1 4.1525 1.25118 3.36009 1.72514C2.56769 2.19909 1.92894 2.87691 1.51609 3.68193C1.10324 4.48694 0.932757 5.38704 1.02393 6.28042C1.1151 7.1738 1.46429 8.02481 2.032 8.7372" stroke="#FB2387" stroke-opacity="0.5" stroke-width="2" stroke-linecap="round" stroke-linejoin="round"/>
</svg>
